<svg width="596" height="161" viewBox="0 0 596 161" fill="none" xmlns="http://www.w3.org/2000/svg">
<path d="M217.36 118V42.54H258.5C262.533 42.54 266.127 43.31 269.28 44.85C272.507 46.39 275.037 48.5533 276.87 51.34C278.703 54.1267 279.62 57.39 279.62 61.13C279.62 63.99 279.07 66.5933 277.97 68.94C276.87 71.2867 275.367 73.2667 273.46 74.88C271.627 76.42 269.537 77.5933 267.19 78.4V78.84C269.977 79.4267 272.47 80.5633 274.67 82.25C276.87 83.8633 278.593 85.9533 279.84 88.52C281.087 91.0133 281.71 93.91 281.71 97.21C281.71 101.903 280.647 105.79 278.52 108.87C276.467 111.95 273.68 114.26 270.16 115.8C266.713 117.267 262.827 118 258.5 118H217.36ZM231.66 105.79H256.63C259.637 105.79 262.093 104.983 264 103.37C265.98 101.683 266.97 99.08 266.97 95.56C266.97 93.5067 266.567 91.71 265.76 90.17C264.953 88.63 263.707 87.4567 262.02 86.65C260.407 85.77 258.317 85.33 255.75 85.33H231.66V105.79ZM231.66 73.34H254.76C256.96 73.34 258.793 72.9367 260.26 72.13C261.8 71.3233 262.937 70.2233 263.67 68.83C264.477 67.4367 264.88 65.8967 264.88 64.21C264.88 60.9833 264 58.6 262.24 57.06C260.553 55.52 258.317 54.75 255.53 54.75H231.66V73.34ZM293.816 51.23V38.47H307.236V51.23H293.816ZM293.816 118V60.14H307.236V118H293.816ZM336.821 119.32C333.228 119.32 330.404 118.623 328.351 117.23C326.298 115.763 324.831 113.93 323.951 111.73C323.144 109.457 322.741 107.147 322.741 104.8V71.14H315.811V60.14H323.071L325.491 43.97H336.161V60.14H346.171V71.14H336.161V103.48C336.161 105.02 336.564 106.23 337.371 107.11C338.178 107.917 339.388 108.32 341.001 108.32H346.171V117.56C345.438 117.853 344.521 118.11 343.421 118.33C342.394 118.623 341.294 118.843 340.121 118.99C338.948 119.21 337.848 119.32 336.821 119.32ZM357.331 118V42.54H379.881L391.761 84.56C392.201 86.0267 392.641 87.6767 393.081 89.51C393.521 91.3433 393.924 93.1033 394.291 94.79C394.731 96.4767 395.061 97.9433 395.281 99.19H396.161C396.307 98.09 396.527 96.7333 396.821 95.12C397.114 93.5067 397.444 91.7833 397.811 89.95C398.251 88.0433 398.727 86.21 399.241 84.45L411.121 42.54H433.451V118H419.151V79.83C419.151 76.4567 419.187 73.0833 419.261 69.71C419.334 66.3367 419.407 63.44 419.481 61.02C419.627 58.6 419.701 57.17 419.701 56.73H418.821C418.674 57.39 418.307 58.82 417.721 61.02C417.134 63.22 416.511 65.6033 415.851 68.17C415.191 70.7367 414.604 72.9367 414.091 74.77L401.661 118H388.461L376.031 74.88C375.591 73.34 375.077 71.5067 374.491 69.38C373.977 67.18 373.427 64.9433 372.841 62.67C372.327 60.3967 371.851 58.4167 371.411 56.73H370.531C370.604 58.71 370.677 61.0933 370.751 63.88C370.824 66.5933 370.897 69.38 370.971 72.24C371.044 75.0267 371.081 77.5567 371.081 79.83V118H357.331ZM448.933 51.23V38.47H462.353V51.23H448.933ZM448.933 118V60.14H462.353V118H448.933ZM476.648 118V60.14H487.868L488.968 67.84H489.738C491.058 66.08 492.598 64.54 494.358 63.22C496.191 61.8267 498.245 60.7633 500.518 60.03C502.865 59.2233 505.431 58.82 508.218 58.82C511.885 58.82 515.111 59.48 517.898 60.8C520.758 62.12 522.995 64.2467 524.608 67.18C526.221 70.1133 527.028 74.0367 527.028 78.95V118H513.498V81.37C513.498 79.3167 513.241 77.63 512.728 76.31C512.288 74.9167 511.591 73.8167 510.638 73.01C509.758 72.13 508.658 71.5067 507.338 71.14C506.018 70.7733 504.551 70.59 502.938 70.59C500.518 70.59 498.318 71.1767 496.338 72.35C494.431 73.5233 492.891 75.1367 491.718 77.19C490.618 79.2433 490.068 81.6267 490.068 84.34V118H476.648ZM565.746 119.32C559.586 119.32 554.453 118.257 550.346 116.13C546.24 113.93 543.16 110.593 541.106 106.12C539.053 101.647 538.026 95.9633 538.026 89.07C538.026 82.1033 539.053 76.42 541.106 72.02C543.16 67.5467 546.24 64.2467 550.346 62.12C554.453 59.92 559.586 58.82 565.746 58.82C571.32 58.82 575.976 59.8833 579.716 62.01C583.53 64.0633 586.39 67.2533 588.296 71.58C590.203 75.9067 591.156 81.5167 591.156 88.41V92.37H551.776C551.923 95.9633 552.473 99.0067 553.426 101.5C554.38 103.92 555.846 105.753 557.826 107C559.88 108.173 562.556 108.76 565.856 108.76C567.543 108.76 569.12 108.54 570.586 108.1C572.053 107.66 573.336 107 574.436 106.12C575.536 105.167 576.38 103.993 576.966 102.6C577.626 101.207 577.956 99.5933 577.956 97.76H591.156C591.156 101.427 590.496 104.617 589.176 107.33C587.93 110.043 586.133 112.28 583.786 114.04C581.513 115.8 578.836 117.12 575.756 118C572.676 118.88 569.34 119.32 565.746 119.32ZM551.996 82.91H577.186C577.186 80.49 576.893 78.4367 576.306 76.75C575.793 75.0633 575.023 73.67 573.996 72.57C573.043 71.47 571.87 70.7 570.476 70.26C569.083 69.7467 567.506 69.49 565.746 69.49C562.886 69.49 560.466 69.9667 558.486 70.92C556.58 71.8733 555.113 73.34 554.086 75.32C553.06 77.3 552.363 79.83 551.996 82.91Z" fill="#C6FF00"/>
<ellipse cx="82" cy="80.5" rx="82" ry="80.5" fill="url(#paint0_linear_1_3)"/>
<path d="M40.4459 131V28.1H96.5459C102.046 28.1 106.946 29.15 111.246 31.25C115.646 33.35 119.096 36.3 121.596 40.1C124.096 43.9 125.346 48.35 125.346 53.45C125.346 57.35 124.596 60.9 123.096 64.1C121.596 67.3 119.546 70 116.946 72.2C114.446 74.3 111.596 75.9 108.396 77V77.6C112.196 78.4 115.596 79.95 118.596 82.25C121.596 84.45 123.946 87.3 125.646 90.8C127.346 94.2 128.196 98.15 128.196 102.65C128.196 109.05 126.746 114.35 123.846 118.55C121.046 122.75 117.246 125.9 112.446 128C107.746 130 102.446 131 96.5459 131H40.4459ZM59.9459 114.35H93.9959C98.0959 114.35 101.446 113.25 104.046 111.05C106.746 108.75 108.096 105.2 108.096 100.4C108.096 97.6 107.546 95.15 106.446 93.05C105.346 90.95 103.646 89.35 101.346 88.25C99.1459 87.05 96.2959 86.45 92.7959 86.45H59.9459V114.35ZM59.9459 70.1H91.4459C94.4459 70.1 96.9459 69.55 98.9459 68.45C101.046 67.35 102.596 65.85 103.596 63.95C104.696 62.05 105.246 59.95 105.246 57.65C105.246 53.25 104.046 50 101.646 47.9C99.3459 45.8 96.2959 44.75 92.4959 44.75H59.9459V70.1Z" fill="black"/>
<rect x="64" y="93" width="36" height="12" fill="black"/>
<rect x="64" y="52" width="36" height="12" fill="black"/>
<rect x="60" y="69" width="10" height="18" fill="#C6FF01"/>
<defs>
<linearGradient id="paint0_linear_1_3" x1="76" y1="86" x2="141.5" y2="142" gradientUnits="userSpaceOnUse">
<stop stop-color="#C6FF00"/>
<stop offset="1" stop-color="white"/>
</linearGradient>
</defs>
</svg>
